<svg xmlns="http://www.w3.org/2000/svg" width="20" height="20" viewBox="0 0 20 20">
  <path fill="#FFF" fill-rule="evenodd" d="M347.39748,142.2165 L347.404161,142.221166 L351.6881,148.584969 L353.91548,149.9125 L357.000315,148.300847 L356.99948,149.0125 L353.92048,149.9155 L356.99948,151.7505 L356.99948,153.7835 L350.893624,149.413001 L347.39748,142.2165 Z M366.60252,142.2165 L363.106376,149.413001 L357.00052,153.7835 L357.00052,151.7505 L360.07952,149.9155 L357.00052,149.0125 L356.999685,148.300847 L360.08452,149.9125 L362.3119,148.584969 L366.595839,142.221166 L366.60252,142.2165 Z M356.99948,145.4215 L356.99948,146.7265 L351.6881,148.584969 L356.99948,145.4215 Z M357.00052,145.4215 L362.3119,148.584969 L357.00052,146.7265 L357.00052,145.4215 Z" transform="translate(-347 -138)"/>
</svg>
